<svg width="33" height="28" viewBox="0 0 33 28" fill="none" xmlns="http://www.w3.org/2000/svg">
<path d="M16.6348 0.363525C7.67836 0.363525 0.379883 6.44543 0.379883 13.909C0.379883 21.3725 7.67836 27.4544 16.6348 27.4544C25.5913 27.4544 32.8898 21.3725 32.8898 13.909C32.8898 6.44543 25.5913 0.363525 16.6348 0.363525ZM15.4157 8.4908C15.4157 7.93543 15.9684 7.47489 16.6348 7.47489C17.3013 7.47489 17.854 7.93543 17.854 8.4908V15.2635C17.854 15.8189 17.3013 16.2794 16.6348 16.2794C15.9684 16.2794 15.4157 15.8189 15.4157 15.2635V8.4908ZM18.1303 19.8419C18.049 20.018 17.9352 20.1534 17.7889 20.2889C17.6264 20.4108 17.4476 20.5056 17.2525 20.5733C17.0575 20.6411 16.8462 20.6817 16.6348 20.6817C16.4235 20.6817 16.2122 20.6411 16.0172 20.5733C15.8221 20.5056 15.6433 20.4108 15.4807 20.2889C15.3344 20.1534 15.2207 20.018 15.1394 19.8419C15.0581 19.6793 15.0093 19.5033 15.0093 19.3272C15.0093 19.1511 15.0581 18.975 15.1394 18.8124C15.2207 18.6499 15.3344 18.5009 15.4807 18.3654C15.6433 18.2435 15.8221 18.1487 16.0172 18.081C16.4073 17.9455 16.8624 17.9455 17.2525 18.081C17.4476 18.1487 17.6264 18.2435 17.7889 18.3654C17.9352 18.5009 18.049 18.6499 18.1303 18.8124C18.2116 18.975 18.2603 19.1511 18.2603 19.3272C18.2603 19.5033 18.2116 19.6793 18.1303 19.8419Z" fill="#FCE8CF"/>
</svg>
